<mxfile host="Electron" modified="2024-07-23T22:29:17.602Z" agent="Mozilla/5.0 (Windows NT 10.0; Win64; x64) AppleWebKit/537.36 (KHTML, like Gecko) draw.io/24.5.1 Chrome/124.0.6367.207 Electron/30.0.6 Safari/537.36" etag="whYJGofqYoXE9BWf-3nX" version="24.5.1" type="device">
  <diagram name="P치gina-1" id="a-ehUnWnBTQoZHch7iMG">
    <mxGraphModel dx="2739" dy="2284" grid="1" gridSize="10" guides="1" tooltips="1" connect="1" arrows="1" fold="1" page="1" pageScale="1" pageWidth="827" pageHeight="1169" math="0" shadow="0">
      <root>
        <mxCell id="0" />
        <mxCell id="1" parent="0" />
        <mxCell id="3QKNfHfciTVE6FXksiD2-12" style="edgeStyle=orthogonalEdgeStyle;rounded=0;orthogonalLoop=1;jettySize=auto;html=1;exitX=1;exitY=0.5;exitDx=0;exitDy=0;entryX=-0.024;entryY=0.224;entryDx=0;entryDy=0;entryPerimeter=0;" parent="1" source="3QKNfHfciTVE6FXksiD2-1" target="3QKNfHfciTVE6FXksiD2-19" edge="1">
          <mxGeometry relative="1" as="geometry">
            <mxPoint x="614.4782608695655" y="310" as="targetPoint" />
          </mxGeometry>
        </mxCell>
        <mxCell id="Q0OwDhaclV1V3rcsGwMB-49" style="edgeStyle=none;curved=1;rounded=0;orthogonalLoop=1;jettySize=auto;html=1;exitX=0.5;exitY=1;exitDx=0;exitDy=0;entryX=0.5;entryY=0;entryDx=0;entryDy=0;fontSize=12;startSize=8;endSize=8;" parent="1" source="3QKNfHfciTVE6FXksiD2-1" target="Q0OwDhaclV1V3rcsGwMB-44" edge="1">
          <mxGeometry relative="1" as="geometry" />
        </mxCell>
        <mxCell id="3QKNfHfciTVE6FXksiD2-1" value="Login" style="swimlane;whiteSpace=wrap;html=1;" parent="1" vertex="1">
          <mxGeometry x="-60" y="-50" width="311" height="320" as="geometry" />
        </mxCell>
        <mxCell id="Q0OwDhaclV1V3rcsGwMB-31" value="Email" style="rounded=0;whiteSpace=wrap;html=1;" parent="3QKNfHfciTVE6FXksiD2-1" vertex="1">
          <mxGeometry x="31" y="100" width="259" height="30" as="geometry" />
        </mxCell>
        <mxCell id="Q0OwDhaclV1V3rcsGwMB-32" value="Contrase침a" style="rounded=0;whiteSpace=wrap;html=1;" parent="3QKNfHfciTVE6FXksiD2-1" vertex="1">
          <mxGeometry x="31" y="140" width="259" height="30" as="geometry" />
        </mxCell>
        <mxCell id="Q0OwDhaclV1V3rcsGwMB-33" value="Ingresar" style="rounded=0;whiteSpace=wrap;html=1;" parent="3QKNfHfciTVE6FXksiD2-1" vertex="1">
          <mxGeometry x="220" y="180" width="70" height="30" as="geometry" />
        </mxCell>
        <mxCell id="Q0OwDhaclV1V3rcsGwMB-34" value="&lt;font style=&quot;font-size: 9px;&quot;&gt;Crear cuenta&lt;/font&gt;" style="text;html=1;align=center;verticalAlign=middle;resizable=0;points=[];autosize=1;strokeColor=none;fillColor=none;fontSize=16;" parent="3QKNfHfciTVE6FXksiD2-1" vertex="1">
          <mxGeometry x="20" y="160" width="80" height="30" as="geometry" />
        </mxCell>
        <mxCell id="3QKNfHfciTVE6FXksiD2-8" value="" style="edgeStyle=orthogonalEdgeStyle;rounded=0;orthogonalLoop=1;jettySize=auto;html=1;" parent="1" target="3QKNfHfciTVE6FXksiD2-6" edge="1">
          <mxGeometry relative="1" as="geometry">
            <mxPoint x="115.05263157894751" y="680" as="sourcePoint" />
          </mxGeometry>
        </mxCell>
        <mxCell id="Q0OwDhaclV1V3rcsGwMB-58" style="edgeStyle=none;curved=1;rounded=0;orthogonalLoop=1;jettySize=auto;html=1;exitX=1;exitY=0.5;exitDx=0;exitDy=0;fontSize=12;startSize=8;endSize=8;" parent="1" source="3QKNfHfciTVE6FXksiD2-6" edge="1">
          <mxGeometry relative="1" as="geometry">
            <mxPoint x="890" y="760" as="targetPoint" />
          </mxGeometry>
        </mxCell>
        <mxCell id="3QKNfHfciTVE6FXksiD2-6" value="Poner c칩digo de confirmaci칩n (jumble)" style="swimlane;whiteSpace=wrap;html=1;startSize=40;" parent="1" vertex="1">
          <mxGeometry x="20" y="790" width="380" height="370" as="geometry" />
        </mxCell>
        <mxCell id="Q0OwDhaclV1V3rcsGwMB-56" value="Ingresar codigo enviado al email" style="rounded=0;whiteSpace=wrap;html=1;" parent="3QKNfHfciTVE6FXksiD2-6" vertex="1">
          <mxGeometry x="30" y="140" width="304.5" height="40" as="geometry" />
        </mxCell>
        <mxCell id="Q0OwDhaclV1V3rcsGwMB-57" value="Confirmar" style="rounded=0;whiteSpace=wrap;html=1;" parent="3QKNfHfciTVE6FXksiD2-6" vertex="1">
          <mxGeometry x="132.25" y="190" width="100" height="30" as="geometry" />
        </mxCell>
        <mxCell id="3QKNfHfciTVE6FXksiD2-13" value="Ingresa con usuario existente" style="text;html=1;align=center;verticalAlign=middle;resizable=0;points=[];autosize=1;strokeColor=none;fillColor=none;" parent="1" vertex="1">
          <mxGeometry x="280" y="120" width="190" height="30" as="geometry" />
        </mxCell>
        <mxCell id="3QKNfHfciTVE6FXksiD2-14" value="Ingresa con nuevo usuario" style="text;html=1;align=center;verticalAlign=middle;resizable=0;points=[];autosize=1;strokeColor=none;fillColor=none;" parent="1" vertex="1">
          <mxGeometry x="220" y="760" width="180" height="30" as="geometry" />
        </mxCell>
        <mxCell id="3QKNfHfciTVE6FXksiD2-16" value="Landing page" style="swimlane;whiteSpace=wrap;html=1;startSize=50;" parent="1" vertex="1">
          <mxGeometry x="900" y="160" width="740" height="740" as="geometry" />
        </mxCell>
        <mxCell id="3QKNfHfciTVE6FXksiD2-19" value="" style="whiteSpace=wrap;html=1;" parent="3QKNfHfciTVE6FXksiD2-16" vertex="1">
          <mxGeometry y="50" width="220" height="660" as="geometry" />
        </mxCell>
        <mxCell id="3QKNfHfciTVE6FXksiD2-20" value="Filtros" style="text;html=1;align=center;verticalAlign=middle;resizable=0;points=[];autosize=1;strokeColor=none;fillColor=none;fontSize=15;" parent="3QKNfHfciTVE6FXksiD2-16" vertex="1">
          <mxGeometry x="75" y="60" width="70" height="30" as="geometry" />
        </mxCell>
        <mxCell id="dMj673UsG03BrVbwtvJZ-1" value="" style="rounded=0;whiteSpace=wrap;html=1;" vertex="1" parent="3QKNfHfciTVE6FXksiD2-16">
          <mxGeometry x="20" y="110" width="190" height="30" as="geometry" />
        </mxCell>
        <mxCell id="dMj673UsG03BrVbwtvJZ-2" value="" style="rounded=0;whiteSpace=wrap;html=1;" vertex="1" parent="3QKNfHfciTVE6FXksiD2-16">
          <mxGeometry x="20" y="150" width="190" height="30" as="geometry" />
        </mxCell>
        <mxCell id="dMj673UsG03BrVbwtvJZ-3" value="" style="rounded=0;whiteSpace=wrap;html=1;" vertex="1" parent="3QKNfHfciTVE6FXksiD2-16">
          <mxGeometry x="20" y="190" width="190" height="30" as="geometry" />
        </mxCell>
        <mxCell id="dMj673UsG03BrVbwtvJZ-4" value="" style="rounded=0;whiteSpace=wrap;html=1;" vertex="1" parent="3QKNfHfciTVE6FXksiD2-16">
          <mxGeometry x="20" y="230" width="190" height="30" as="geometry" />
        </mxCell>
        <mxCell id="dMj673UsG03BrVbwtvJZ-5" value="" style="rounded=0;whiteSpace=wrap;html=1;" vertex="1" parent="3QKNfHfciTVE6FXksiD2-16">
          <mxGeometry x="20" y="390" width="190" height="30" as="geometry" />
        </mxCell>
        <mxCell id="dMj673UsG03BrVbwtvJZ-6" value="" style="rounded=0;whiteSpace=wrap;html=1;" vertex="1" parent="3QKNfHfciTVE6FXksiD2-16">
          <mxGeometry x="20" y="350" width="190" height="30" as="geometry" />
        </mxCell>
        <mxCell id="dMj673UsG03BrVbwtvJZ-7" value="" style="rounded=0;whiteSpace=wrap;html=1;" vertex="1" parent="3QKNfHfciTVE6FXksiD2-16">
          <mxGeometry x="20" y="310" width="190" height="30" as="geometry" />
        </mxCell>
        <mxCell id="dMj673UsG03BrVbwtvJZ-8" value="" style="rounded=0;whiteSpace=wrap;html=1;" vertex="1" parent="3QKNfHfciTVE6FXksiD2-16">
          <mxGeometry x="20" y="270" width="190" height="30" as="geometry" />
        </mxCell>
        <mxCell id="dMj673UsG03BrVbwtvJZ-9" value="" style="rounded=0;whiteSpace=wrap;html=1;" vertex="1" parent="3QKNfHfciTVE6FXksiD2-16">
          <mxGeometry x="20" y="550" width="190" height="30" as="geometry" />
        </mxCell>
        <mxCell id="dMj673UsG03BrVbwtvJZ-10" value="" style="rounded=0;whiteSpace=wrap;html=1;" vertex="1" parent="3QKNfHfciTVE6FXksiD2-16">
          <mxGeometry x="20" y="510" width="190" height="30" as="geometry" />
        </mxCell>
        <mxCell id="dMj673UsG03BrVbwtvJZ-11" value="" style="rounded=0;whiteSpace=wrap;html=1;" vertex="1" parent="3QKNfHfciTVE6FXksiD2-16">
          <mxGeometry x="20" y="470" width="190" height="30" as="geometry" />
        </mxCell>
        <mxCell id="dMj673UsG03BrVbwtvJZ-12" value="" style="rounded=0;whiteSpace=wrap;html=1;" vertex="1" parent="3QKNfHfciTVE6FXksiD2-16">
          <mxGeometry x="20" y="430" width="190" height="30" as="geometry" />
        </mxCell>
        <mxCell id="Q0OwDhaclV1V3rcsGwMB-2" value="" style="group" parent="3QKNfHfciTVE6FXksiD2-16" vertex="1" connectable="0">
          <mxGeometry x="304" y="105" width="351" height="437" as="geometry" />
        </mxCell>
        <mxCell id="3QKNfHfciTVE6FXksiD2-48" value="&lt;font style=&quot;font-size: 25px;&quot;&gt;Resultados&lt;/font&gt;" style="text;html=1;align=center;verticalAlign=middle;resizable=0;points=[];autosize=1;strokeColor=none;fillColor=none;" parent="Q0OwDhaclV1V3rcsGwMB-2" vertex="1">
          <mxGeometry x="81" width="160" height="40" as="geometry" />
        </mxCell>
        <mxCell id="Q0OwDhaclV1V3rcsGwMB-1" value="" style="group" parent="Q0OwDhaclV1V3rcsGwMB-2" vertex="1" connectable="0">
          <mxGeometry y="40" width="351" height="397" as="geometry" />
        </mxCell>
        <mxCell id="3QKNfHfciTVE6FXksiD2-21" value="" style="whiteSpace=wrap;html=1;" parent="Q0OwDhaclV1V3rcsGwMB-1" vertex="1">
          <mxGeometry width="80" height="70" as="geometry" />
        </mxCell>
        <mxCell id="3QKNfHfciTVE6FXksiD2-22" value="" style="whiteSpace=wrap;html=1;" parent="Q0OwDhaclV1V3rcsGwMB-1" vertex="1">
          <mxGeometry x="90" width="80" height="70" as="geometry" />
        </mxCell>
        <mxCell id="3QKNfHfciTVE6FXksiD2-23" value="" style="whiteSpace=wrap;html=1;" parent="Q0OwDhaclV1V3rcsGwMB-1" vertex="1">
          <mxGeometry x="180" width="80" height="70" as="geometry" />
        </mxCell>
        <mxCell id="3QKNfHfciTVE6FXksiD2-24" value="" style="whiteSpace=wrap;html=1;" parent="Q0OwDhaclV1V3rcsGwMB-1" vertex="1">
          <mxGeometry x="270" width="80" height="70" as="geometry" />
        </mxCell>
        <mxCell id="3QKNfHfciTVE6FXksiD2-32" value="" style="whiteSpace=wrap;html=1;" parent="Q0OwDhaclV1V3rcsGwMB-1" vertex="1">
          <mxGeometry x="270" y="163" width="80" height="70" as="geometry" />
        </mxCell>
        <mxCell id="3QKNfHfciTVE6FXksiD2-33" value="" style="whiteSpace=wrap;html=1;" parent="Q0OwDhaclV1V3rcsGwMB-1" vertex="1">
          <mxGeometry x="180" y="163" width="80" height="70" as="geometry" />
        </mxCell>
        <mxCell id="3QKNfHfciTVE6FXksiD2-34" value="" style="whiteSpace=wrap;html=1;" parent="Q0OwDhaclV1V3rcsGwMB-1" vertex="1">
          <mxGeometry x="90" y="163" width="80" height="70" as="geometry" />
        </mxCell>
        <mxCell id="3QKNfHfciTVE6FXksiD2-35" value="" style="whiteSpace=wrap;html=1;" parent="Q0OwDhaclV1V3rcsGwMB-1" vertex="1">
          <mxGeometry y="163" width="80" height="70" as="geometry" />
        </mxCell>
        <mxCell id="3QKNfHfciTVE6FXksiD2-40" value="" style="whiteSpace=wrap;html=1;" parent="Q0OwDhaclV1V3rcsGwMB-1" vertex="1">
          <mxGeometry x="271" y="327" width="80" height="70" as="geometry" />
        </mxCell>
        <mxCell id="3QKNfHfciTVE6FXksiD2-41" value="" style="whiteSpace=wrap;html=1;" parent="Q0OwDhaclV1V3rcsGwMB-1" vertex="1">
          <mxGeometry x="181" y="327" width="80" height="70" as="geometry" />
        </mxCell>
        <mxCell id="3QKNfHfciTVE6FXksiD2-42" value="" style="whiteSpace=wrap;html=1;" parent="Q0OwDhaclV1V3rcsGwMB-1" vertex="1">
          <mxGeometry x="91" y="327" width="80" height="70" as="geometry" />
        </mxCell>
        <mxCell id="3QKNfHfciTVE6FXksiD2-43" value="" style="whiteSpace=wrap;html=1;" parent="Q0OwDhaclV1V3rcsGwMB-1" vertex="1">
          <mxGeometry x="1" y="327" width="80" height="70" as="geometry" />
        </mxCell>
        <mxCell id="3QKNfHfciTVE6FXksiD2-77" value="&lt;font style=&quot;font-size: 13px;&quot;&gt;Publicacion&lt;/font&gt;" style="text;html=1;align=center;verticalAlign=middle;resizable=0;points=[];autosize=1;strokeColor=none;fillColor=none;" parent="Q0OwDhaclV1V3rcsGwMB-1" vertex="1">
          <mxGeometry x="-5" y="20" width="90" height="30" as="geometry" />
        </mxCell>
        <mxCell id="3QKNfHfciTVE6FXksiD2-28" value="" style="whiteSpace=wrap;html=1;" parent="3QKNfHfciTVE6FXksiD2-16" vertex="1">
          <mxGeometry x="304" y="228" width="80" height="70" as="geometry" />
        </mxCell>
        <mxCell id="3QKNfHfciTVE6FXksiD2-29" value="" style="whiteSpace=wrap;html=1;" parent="3QKNfHfciTVE6FXksiD2-16" vertex="1">
          <mxGeometry x="394" y="228" width="80" height="70" as="geometry" />
        </mxCell>
        <mxCell id="3QKNfHfciTVE6FXksiD2-30" value="" style="whiteSpace=wrap;html=1;" parent="3QKNfHfciTVE6FXksiD2-16" vertex="1">
          <mxGeometry x="484" y="228" width="80" height="70" as="geometry" />
        </mxCell>
        <mxCell id="3QKNfHfciTVE6FXksiD2-31" value="" style="whiteSpace=wrap;html=1;" parent="3QKNfHfciTVE6FXksiD2-16" vertex="1">
          <mxGeometry x="574" y="228" width="80" height="70" as="geometry" />
        </mxCell>
        <mxCell id="3QKNfHfciTVE6FXksiD2-39" value="" style="whiteSpace=wrap;html=1;" parent="3QKNfHfciTVE6FXksiD2-16" vertex="1">
          <mxGeometry x="574" y="391" width="80" height="70" as="geometry" />
        </mxCell>
        <mxCell id="3QKNfHfciTVE6FXksiD2-38" value="" style="whiteSpace=wrap;html=1;" parent="3QKNfHfciTVE6FXksiD2-16" vertex="1">
          <mxGeometry x="484" y="391" width="80" height="70" as="geometry" />
        </mxCell>
        <mxCell id="3QKNfHfciTVE6FXksiD2-37" value="" style="whiteSpace=wrap;html=1;" parent="3QKNfHfciTVE6FXksiD2-16" vertex="1">
          <mxGeometry x="394" y="391" width="80" height="70" as="geometry" />
        </mxCell>
        <mxCell id="3QKNfHfciTVE6FXksiD2-36" value="" style="whiteSpace=wrap;html=1;" parent="3QKNfHfciTVE6FXksiD2-16" vertex="1">
          <mxGeometry x="304" y="391" width="80" height="70" as="geometry" />
        </mxCell>
        <mxCell id="3QKNfHfciTVE6FXksiD2-44" value="" style="whiteSpace=wrap;html=1;" parent="3QKNfHfciTVE6FXksiD2-16" vertex="1">
          <mxGeometry x="300" y="555" width="85" height="70" as="geometry" />
        </mxCell>
        <mxCell id="3QKNfHfciTVE6FXksiD2-45" value="" style="whiteSpace=wrap;html=1;" parent="3QKNfHfciTVE6FXksiD2-16" vertex="1">
          <mxGeometry x="395" y="555" width="80" height="70" as="geometry" />
        </mxCell>
        <mxCell id="3QKNfHfciTVE6FXksiD2-46" value="" style="whiteSpace=wrap;html=1;" parent="3QKNfHfciTVE6FXksiD2-16" vertex="1">
          <mxGeometry x="485" y="555" width="80" height="70" as="geometry" />
        </mxCell>
        <mxCell id="3QKNfHfciTVE6FXksiD2-47" value="" style="whiteSpace=wrap;html=1;" parent="3QKNfHfciTVE6FXksiD2-16" vertex="1">
          <mxGeometry x="575" y="555" width="80" height="70" as="geometry" />
        </mxCell>
        <mxCell id="dMj673UsG03BrVbwtvJZ-81" style="edgeStyle=orthogonalEdgeStyle;rounded=0;orthogonalLoop=1;jettySize=auto;html=1;exitX=0.5;exitY=0;exitDx=0;exitDy=0;" edge="1" parent="3QKNfHfciTVE6FXksiD2-16" source="dMj673UsG03BrVbwtvJZ-48">
          <mxGeometry relative="1" as="geometry">
            <mxPoint x="660" y="-130" as="targetPoint" />
          </mxGeometry>
        </mxCell>
        <mxCell id="dMj673UsG03BrVbwtvJZ-48" value="Nombre usuario" style="whiteSpace=wrap;html=1;" vertex="1" parent="3QKNfHfciTVE6FXksiD2-16">
          <mxGeometry x="610" y="10" width="110" height="30" as="geometry" />
        </mxCell>
        <mxCell id="dMj673UsG03BrVbwtvJZ-49" value="" style="ellipse;whiteSpace=wrap;html=1;aspect=fixed;" vertex="1" parent="3QKNfHfciTVE6FXksiD2-16">
          <mxGeometry x="655" y="660" width="60" height="60" as="geometry" />
        </mxCell>
        <mxCell id="dMj673UsG03BrVbwtvJZ-50" value="" style="shape=cross;whiteSpace=wrap;html=1;" vertex="1" parent="3QKNfHfciTVE6FXksiD2-16">
          <mxGeometry x="665" y="670" width="40" height="40" as="geometry" />
        </mxCell>
        <mxCell id="3QKNfHfciTVE6FXksiD2-69" value="&lt;font style=&quot;font-size: 21px;&quot;&gt;Vista publicaci칩n&lt;/font&gt;" style="swimlane;whiteSpace=wrap;html=1;startSize=80;" parent="1" vertex="1">
          <mxGeometry x="660" y="1200" width="1120" height="910" as="geometry" />
        </mxCell>
        <mxCell id="3QKNfHfciTVE6FXksiD2-70" value="&lt;font style=&quot;font-size: 21px;&quot;&gt;Fotos&lt;/font&gt;" style="whiteSpace=wrap;html=1;" parent="3QKNfHfciTVE6FXksiD2-69" vertex="1">
          <mxGeometry y="80" width="600" height="790" as="geometry" />
        </mxCell>
        <mxCell id="3QKNfHfciTVE6FXksiD2-80" value="&lt;font style=&quot;font-size: 15px;&quot;&gt;Detalle de la publicaci칩n&lt;/font&gt;" style="text;html=1;align=center;verticalAlign=middle;resizable=0;points=[];autosize=1;strokeColor=none;fillColor=none;" parent="3QKNfHfciTVE6FXksiD2-69" vertex="1">
          <mxGeometry x="780" y="280" width="190" height="30" as="geometry" />
        </mxCell>
        <mxCell id="dMj673UsG03BrVbwtvJZ-44" value="" style="image;aspect=fixed;html=1;points=[];align=center;fontSize=12;image=img/lib/azure2/general/Image.svg;" vertex="1" parent="3QKNfHfciTVE6FXksiD2-69">
          <mxGeometry x="50" y="240" width="523.63" height="360" as="geometry" />
        </mxCell>
        <mxCell id="dMj673UsG03BrVbwtvJZ-71" value="" style="group" vertex="1" connectable="0" parent="3QKNfHfciTVE6FXksiD2-69">
          <mxGeometry x="630" y="340" width="450" height="440" as="geometry" />
        </mxCell>
        <mxCell id="dMj673UsG03BrVbwtvJZ-45" value="" style="whiteSpace=wrap;html=1;" vertex="1" parent="dMj673UsG03BrVbwtvJZ-71">
          <mxGeometry width="450" height="57.391304347826086" as="geometry" />
        </mxCell>
        <mxCell id="dMj673UsG03BrVbwtvJZ-46" value="" style="whiteSpace=wrap;html=1;" vertex="1" parent="dMj673UsG03BrVbwtvJZ-71">
          <mxGeometry y="76.52173913043478" width="450" height="57.391304347826086" as="geometry" />
        </mxCell>
        <mxCell id="dMj673UsG03BrVbwtvJZ-47" value="" style="whiteSpace=wrap;html=1;" vertex="1" parent="dMj673UsG03BrVbwtvJZ-71">
          <mxGeometry y="153.04347826086956" width="450" height="286.95652173913044" as="geometry" />
        </mxCell>
        <mxCell id="Q0OwDhaclV1V3rcsGwMB-4" value="Foto" style="ellipse;whiteSpace=wrap;html=1;" parent="3QKNfHfciTVE6FXksiD2-69" vertex="1">
          <mxGeometry x="680" y="110" width="140" height="140" as="geometry" />
        </mxCell>
        <mxCell id="Q0OwDhaclV1V3rcsGwMB-3" value="Nombre del propietario" style="whiteSpace=wrap;html=1;" parent="3QKNfHfciTVE6FXksiD2-69" vertex="1">
          <mxGeometry x="840" y="140" width="240" height="90" as="geometry" />
        </mxCell>
        <mxCell id="dMj673UsG03BrVbwtvJZ-73" value="&lt;font style=&quot;font-size: 15px;&quot;&gt;Detalle del propietario&lt;/font&gt;" style="text;html=1;align=center;verticalAlign=middle;resizable=0;points=[];autosize=1;strokeColor=none;fillColor=none;" vertex="1" parent="3QKNfHfciTVE6FXksiD2-69">
          <mxGeometry x="840" y="100" width="170" height="30" as="geometry" />
        </mxCell>
        <mxCell id="dMj673UsG03BrVbwtvJZ-79" value="" style="shape=ext;double=1;rounded=0;whiteSpace=wrap;html=1;fillColor=none;dashed=1;strokeColor=#b46504;strokeWidth=3;" vertex="1" parent="3QKNfHfciTVE6FXksiD2-69">
          <mxGeometry x="640" y="90" width="460" height="180" as="geometry" />
        </mxCell>
        <mxCell id="3QKNfHfciTVE6FXksiD2-84" value="&lt;span style=&quot;font-size: 48px;&quot;&gt;HOSTERLAN&lt;/span&gt;" style="text;html=1;align=center;verticalAlign=middle;resizable=0;points=[];autosize=1;strokeColor=none;fillColor=none;" parent="1" vertex="1">
          <mxGeometry x="645" y="-100" width="320" height="70" as="geometry" />
        </mxCell>
        <mxCell id="Q0OwDhaclV1V3rcsGwMB-6" value="Perfil del propietario (Modal)" style="swimlane;whiteSpace=wrap;html=1;startSize=70;" parent="1" vertex="1">
          <mxGeometry x="1320" y="2180" width="460" height="520" as="geometry" />
        </mxCell>
        <mxCell id="Q0OwDhaclV1V3rcsGwMB-8" value="" style="ellipse;whiteSpace=wrap;html=1;aspect=fixed;" parent="Q0OwDhaclV1V3rcsGwMB-6" vertex="1">
          <mxGeometry x="20" y="80" width="80" height="80" as="geometry" />
        </mxCell>
        <mxCell id="Q0OwDhaclV1V3rcsGwMB-9" value="Nombre" style="whiteSpace=wrap;html=1;" parent="Q0OwDhaclV1V3rcsGwMB-6" vertex="1">
          <mxGeometry x="130" y="100" width="160" height="30" as="geometry" />
        </mxCell>
        <mxCell id="Q0OwDhaclV1V3rcsGwMB-10" value="Descripci칩n" style="whiteSpace=wrap;html=1;" parent="Q0OwDhaclV1V3rcsGwMB-6" vertex="1">
          <mxGeometry x="130" y="140" width="160" height="20" as="geometry" />
        </mxCell>
        <mxCell id="Q0OwDhaclV1V3rcsGwMB-11" value="Publicaciones/Filros" style="rounded=0;whiteSpace=wrap;html=1;" parent="Q0OwDhaclV1V3rcsGwMB-6" vertex="1">
          <mxGeometry x="10" y="190" width="440" height="30" as="geometry" />
        </mxCell>
        <mxCell id="Q0OwDhaclV1V3rcsGwMB-12" value="" style="whiteSpace=wrap;html=1;aspect=fixed;" parent="Q0OwDhaclV1V3rcsGwMB-6" vertex="1">
          <mxGeometry x="10" y="230" width="80" height="80" as="geometry" />
        </mxCell>
        <mxCell id="Q0OwDhaclV1V3rcsGwMB-13" value="" style="whiteSpace=wrap;html=1;aspect=fixed;" parent="Q0OwDhaclV1V3rcsGwMB-6" vertex="1">
          <mxGeometry x="100" y="230" width="80" height="80" as="geometry" />
        </mxCell>
        <mxCell id="Q0OwDhaclV1V3rcsGwMB-14" value="" style="whiteSpace=wrap;html=1;aspect=fixed;" parent="Q0OwDhaclV1V3rcsGwMB-6" vertex="1">
          <mxGeometry x="190" y="230" width="80" height="80" as="geometry" />
        </mxCell>
        <mxCell id="Q0OwDhaclV1V3rcsGwMB-18" value="" style="whiteSpace=wrap;html=1;aspect=fixed;" parent="Q0OwDhaclV1V3rcsGwMB-6" vertex="1">
          <mxGeometry x="10" y="320" width="80" height="80" as="geometry" />
        </mxCell>
        <mxCell id="Q0OwDhaclV1V3rcsGwMB-19" value="" style="whiteSpace=wrap;html=1;aspect=fixed;" parent="Q0OwDhaclV1V3rcsGwMB-6" vertex="1">
          <mxGeometry x="100" y="320" width="80" height="80" as="geometry" />
        </mxCell>
        <mxCell id="Q0OwDhaclV1V3rcsGwMB-20" value="" style="whiteSpace=wrap;html=1;aspect=fixed;" parent="Q0OwDhaclV1V3rcsGwMB-6" vertex="1">
          <mxGeometry x="190" y="320" width="80" height="80" as="geometry" />
        </mxCell>
        <mxCell id="Q0OwDhaclV1V3rcsGwMB-21" value="" style="whiteSpace=wrap;html=1;aspect=fixed;" parent="Q0OwDhaclV1V3rcsGwMB-6" vertex="1">
          <mxGeometry x="280" y="320" width="80" height="80" as="geometry" />
        </mxCell>
        <mxCell id="Q0OwDhaclV1V3rcsGwMB-22" value="" style="whiteSpace=wrap;html=1;aspect=fixed;" parent="Q0OwDhaclV1V3rcsGwMB-6" vertex="1">
          <mxGeometry x="370" y="320" width="80" height="80" as="geometry" />
        </mxCell>
        <mxCell id="Q0OwDhaclV1V3rcsGwMB-23" value="" style="whiteSpace=wrap;html=1;aspect=fixed;" parent="Q0OwDhaclV1V3rcsGwMB-6" vertex="1">
          <mxGeometry x="10" y="410" width="80" height="80" as="geometry" />
        </mxCell>
        <mxCell id="Q0OwDhaclV1V3rcsGwMB-24" value="" style="whiteSpace=wrap;html=1;aspect=fixed;" parent="Q0OwDhaclV1V3rcsGwMB-6" vertex="1">
          <mxGeometry x="100" y="410" width="80" height="80" as="geometry" />
        </mxCell>
        <mxCell id="Q0OwDhaclV1V3rcsGwMB-25" value="" style="whiteSpace=wrap;html=1;aspect=fixed;" parent="Q0OwDhaclV1V3rcsGwMB-6" vertex="1">
          <mxGeometry x="190" y="410" width="80" height="80" as="geometry" />
        </mxCell>
        <mxCell id="Q0OwDhaclV1V3rcsGwMB-26" value="" style="whiteSpace=wrap;html=1;aspect=fixed;" parent="Q0OwDhaclV1V3rcsGwMB-6" vertex="1">
          <mxGeometry x="280" y="410" width="80" height="80" as="geometry" />
        </mxCell>
        <mxCell id="Q0OwDhaclV1V3rcsGwMB-27" value="" style="whiteSpace=wrap;html=1;aspect=fixed;" parent="Q0OwDhaclV1V3rcsGwMB-6" vertex="1">
          <mxGeometry x="370" y="410" width="80" height="80" as="geometry" />
        </mxCell>
        <mxCell id="Q0OwDhaclV1V3rcsGwMB-28" value="x" style="ellipse;whiteSpace=wrap;html=1;aspect=fixed;" parent="Q0OwDhaclV1V3rcsGwMB-6" vertex="1">
          <mxGeometry x="420" y="20" width="30" height="30" as="geometry" />
        </mxCell>
        <mxCell id="Q0OwDhaclV1V3rcsGwMB-15" value="" style="whiteSpace=wrap;html=1;aspect=fixed;" parent="1" vertex="1">
          <mxGeometry x="1600" y="2410" width="80" height="80" as="geometry" />
        </mxCell>
        <mxCell id="Q0OwDhaclV1V3rcsGwMB-16" value="" style="whiteSpace=wrap;html=1;aspect=fixed;" parent="1" vertex="1">
          <mxGeometry x="1690" y="2410" width="80" height="80" as="geometry" />
        </mxCell>
        <mxCell id="Q0OwDhaclV1V3rcsGwMB-44" value="Formulario registro" style="swimlane;whiteSpace=wrap;html=1;" parent="1" vertex="1">
          <mxGeometry x="-60" y="370" width="311" height="320" as="geometry" />
        </mxCell>
        <mxCell id="Q0OwDhaclV1V3rcsGwMB-45" value="Email" style="rounded=0;whiteSpace=wrap;html=1;" parent="Q0OwDhaclV1V3rcsGwMB-44" vertex="1">
          <mxGeometry x="31" y="100" width="259" height="30" as="geometry" />
        </mxCell>
        <mxCell id="Q0OwDhaclV1V3rcsGwMB-46" value="Contrase침a" style="rounded=0;whiteSpace=wrap;html=1;" parent="Q0OwDhaclV1V3rcsGwMB-44" vertex="1">
          <mxGeometry x="31" y="140" width="259" height="30" as="geometry" />
        </mxCell>
        <mxCell id="Q0OwDhaclV1V3rcsGwMB-47" value="Registrarse" style="rounded=0;whiteSpace=wrap;html=1;" parent="Q0OwDhaclV1V3rcsGwMB-44" vertex="1">
          <mxGeometry x="125.5" y="220" width="74.5" height="30" as="geometry" />
        </mxCell>
        <mxCell id="Q0OwDhaclV1V3rcsGwMB-54" value="Repetir contrase침a" style="rounded=0;whiteSpace=wrap;html=1;" parent="Q0OwDhaclV1V3rcsGwMB-44" vertex="1">
          <mxGeometry x="31" y="180" width="259" height="30" as="geometry" />
        </mxCell>
        <mxCell id="Q0OwDhaclV1V3rcsGwMB-55" value="Volver" style="whiteSpace=wrap;html=1;" parent="Q0OwDhaclV1V3rcsGwMB-44" vertex="1">
          <mxGeometry x="220" y="40" width="70" height="20" as="geometry" />
        </mxCell>
        <mxCell id="Q0OwDhaclV1V3rcsGwMB-53" value="Registrarse" style="text;html=1;align=center;verticalAlign=middle;resizable=0;points=[];autosize=1;strokeColor=none;fillColor=none;fontSize=16;" parent="1" vertex="1">
          <mxGeometry x="100" y="301" width="110" height="30" as="geometry" />
        </mxCell>
        <mxCell id="dMj673UsG03BrVbwtvJZ-51" value="&lt;br&gt;&lt;div&gt;&lt;span style=&quot;font-size: 30px; background-color: initial;&quot;&gt;Crear publicacion&lt;/span&gt;&lt;/div&gt;" style="swimlane;whiteSpace=wrap;html=1;startSize=170;" vertex="1" parent="1">
          <mxGeometry x="2030" y="1210" width="1250" height="910" as="geometry" />
        </mxCell>
        <mxCell id="dMj673UsG03BrVbwtvJZ-52" value="" style="rounded=0;whiteSpace=wrap;html=1;" vertex="1" parent="dMj673UsG03BrVbwtvJZ-51">
          <mxGeometry x="460" y="170" width="790" height="740" as="geometry" />
        </mxCell>
        <mxCell id="dMj673UsG03BrVbwtvJZ-53" value="Datos a rellenar" style="text;html=1;align=center;verticalAlign=middle;resizable=0;points=[];autosize=1;strokeColor=none;fillColor=none;fontSize=16;" vertex="1" parent="dMj673UsG03BrVbwtvJZ-51">
          <mxGeometry x="150" y="230" width="140" height="30" as="geometry" />
        </mxCell>
        <mxCell id="dMj673UsG03BrVbwtvJZ-54" value="Vista previa" style="text;html=1;align=center;verticalAlign=middle;resizable=0;points=[];autosize=1;strokeColor=none;fillColor=none;fontSize=16;" vertex="1" parent="dMj673UsG03BrVbwtvJZ-51">
          <mxGeometry x="740" y="180" width="110" height="30" as="geometry" />
        </mxCell>
        <mxCell id="dMj673UsG03BrVbwtvJZ-55" value="" style="rounded=0;whiteSpace=wrap;html=1;" vertex="1" parent="dMj673UsG03BrVbwtvJZ-51">
          <mxGeometry x="40" y="280" width="380" height="50" as="geometry" />
        </mxCell>
        <mxCell id="dMj673UsG03BrVbwtvJZ-56" value="" style="rounded=0;whiteSpace=wrap;html=1;" vertex="1" parent="dMj673UsG03BrVbwtvJZ-51">
          <mxGeometry x="40" y="350" width="380" height="50" as="geometry" />
        </mxCell>
        <mxCell id="dMj673UsG03BrVbwtvJZ-57" value="" style="rounded=0;whiteSpace=wrap;html=1;" vertex="1" parent="dMj673UsG03BrVbwtvJZ-51">
          <mxGeometry x="40" y="420" width="380" height="50" as="geometry" />
        </mxCell>
        <mxCell id="dMj673UsG03BrVbwtvJZ-58" value="" style="rounded=0;whiteSpace=wrap;html=1;" vertex="1" parent="dMj673UsG03BrVbwtvJZ-51">
          <mxGeometry x="40" y="490" width="380" height="50" as="geometry" />
        </mxCell>
        <mxCell id="dMj673UsG03BrVbwtvJZ-59" value="" style="rounded=0;whiteSpace=wrap;html=1;" vertex="1" parent="dMj673UsG03BrVbwtvJZ-51">
          <mxGeometry x="40" y="560" width="380" height="50" as="geometry" />
        </mxCell>
        <mxCell id="dMj673UsG03BrVbwtvJZ-60" value="" style="rounded=0;whiteSpace=wrap;html=1;" vertex="1" parent="dMj673UsG03BrVbwtvJZ-51">
          <mxGeometry x="40" y="630" width="380" height="170" as="geometry" />
        </mxCell>
        <mxCell id="dMj673UsG03BrVbwtvJZ-61" value="" style="rounded=0;whiteSpace=wrap;html=1;" vertex="1" parent="dMj673UsG03BrVbwtvJZ-51">
          <mxGeometry x="498" y="210" width="722" height="600" as="geometry" />
        </mxCell>
        <mxCell id="dMj673UsG03BrVbwtvJZ-62" value="" style="rounded=0;whiteSpace=wrap;html=1;" vertex="1" parent="dMj673UsG03BrVbwtvJZ-51">
          <mxGeometry x="960" y="210" width="260" height="600" as="geometry" />
        </mxCell>
        <mxCell id="dMj673UsG03BrVbwtvJZ-63" value="Detalles" style="text;html=1;align=center;verticalAlign=middle;resizable=0;points=[];autosize=1;strokeColor=none;fillColor=none;fontSize=16;" vertex="1" parent="dMj673UsG03BrVbwtvJZ-51">
          <mxGeometry x="1065" y="230" width="80" height="30" as="geometry" />
        </mxCell>
        <mxCell id="dMj673UsG03BrVbwtvJZ-64" value="" style="rounded=0;whiteSpace=wrap;html=1;" vertex="1" parent="dMj673UsG03BrVbwtvJZ-51">
          <mxGeometry x="970" y="300" width="230" height="30" as="geometry" />
        </mxCell>
        <mxCell id="dMj673UsG03BrVbwtvJZ-65" value="" style="rounded=0;whiteSpace=wrap;html=1;" vertex="1" parent="dMj673UsG03BrVbwtvJZ-51">
          <mxGeometry x="970" y="350" width="230" height="30" as="geometry" />
        </mxCell>
        <mxCell id="dMj673UsG03BrVbwtvJZ-66" value="" style="rounded=0;whiteSpace=wrap;html=1;" vertex="1" parent="dMj673UsG03BrVbwtvJZ-51">
          <mxGeometry x="970" y="400" width="230" height="210" as="geometry" />
        </mxCell>
        <mxCell id="dMj673UsG03BrVbwtvJZ-67" value="" style="image;aspect=fixed;html=1;points=[];align=center;fontSize=12;image=img/lib/azure2/general/Image.svg;" vertex="1" parent="dMj673UsG03BrVbwtvJZ-51">
          <mxGeometry x="600" y="380" width="305.45" height="210" as="geometry" />
        </mxCell>
        <mxCell id="dMj673UsG03BrVbwtvJZ-69" style="edgeStyle=orthogonalEdgeStyle;rounded=0;orthogonalLoop=1;jettySize=auto;html=1;exitX=0.5;exitY=1;exitDx=0;exitDy=0;entryX=0.589;entryY=-0.002;entryDx=0;entryDy=0;entryPerimeter=0;" edge="1" parent="1" source="dMj673UsG03BrVbwtvJZ-49" target="dMj673UsG03BrVbwtvJZ-51">
          <mxGeometry relative="1" as="geometry" />
        </mxCell>
        <mxCell id="dMj673UsG03BrVbwtvJZ-70" value="Call to action" style="text;html=1;align=center;verticalAlign=middle;resizable=0;points=[];autosize=1;strokeColor=none;fillColor=none;" vertex="1" parent="1">
          <mxGeometry x="1490" y="990" width="90" height="30" as="geometry" />
        </mxCell>
        <mxCell id="dMj673UsG03BrVbwtvJZ-75" style="edgeStyle=orthogonalEdgeStyle;rounded=0;orthogonalLoop=1;jettySize=auto;html=1;exitX=0.5;exitY=1;exitDx=0;exitDy=0;entryX=0.5;entryY=0;entryDx=0;entryDy=0;" edge="1" parent="1" source="3QKNfHfciTVE6FXksiD2-44" target="3QKNfHfciTVE6FXksiD2-69">
          <mxGeometry relative="1" as="geometry" />
        </mxCell>
        <mxCell id="dMj673UsG03BrVbwtvJZ-76" value="Clickeable" style="text;html=1;align=center;verticalAlign=middle;resizable=0;points=[];autosize=1;strokeColor=none;fillColor=none;" vertex="1" parent="1">
          <mxGeometry x="1230" y="1038" width="80" height="30" as="geometry" />
        </mxCell>
        <mxCell id="dMj673UsG03BrVbwtvJZ-77" style="edgeStyle=orthogonalEdgeStyle;rounded=0;orthogonalLoop=1;jettySize=auto;html=1;entryX=1;entryY=0.5;entryDx=0;entryDy=0;fillColor=#fad7ac;strokeColor=#b46504;strokeWidth=6;exitX=1;exitY=0.5;exitDx=0;exitDy=0;" edge="1" parent="1" source="dMj673UsG03BrVbwtvJZ-79" target="Q0OwDhaclV1V3rcsGwMB-6">
          <mxGeometry relative="1" as="geometry">
            <mxPoint x="1740" y="1380" as="sourcePoint" />
            <Array as="points">
              <mxPoint x="1760" y="1380" />
              <mxPoint x="1910" y="1380" />
              <mxPoint x="1910" y="2440" />
            </Array>
          </mxGeometry>
        </mxCell>
        <mxCell id="dMj673UsG03BrVbwtvJZ-78" value="Hover o click" style="text;html=1;align=center;verticalAlign=middle;resizable=0;points=[];autosize=1;strokeColor=none;fillColor=none;" vertex="1" parent="1">
          <mxGeometry x="1820" y="1340" width="90" height="30" as="geometry" />
        </mxCell>
        <mxCell id="dMj673UsG03BrVbwtvJZ-80" value="Perfil del usuario" style="swimlane;startSize=40;" vertex="1" parent="1">
          <mxGeometry x="1190" y="-410" width="450" height="440" as="geometry" />
        </mxCell>
        <mxCell id="dMj673UsG03BrVbwtvJZ-82" value="Call to action" style="text;html=1;align=center;verticalAlign=middle;resizable=0;points=[];autosize=1;strokeColor=none;fillColor=none;" vertex="1" parent="1">
          <mxGeometry x="1560" y="90" width="90" height="30" as="geometry" />
        </mxCell>
      </root>
    </mxGraphModel>
  </diagram>
</mxfile>
